<?xml version="1.0" encoding="UTF-8" ?>
<!DOCTYPE svg PUBLIC "-//W3C//DTD SVG 1.1//EN" "http://www.w3.org/Graphics/SVG/1.1/DTD/svg11.dtd">
<svg width="252pt" height="213pt" viewBox="0 0 252 213" version="1.1" xmlns="http://www.w3.org/2000/svg">
<path fill="#ffffff" d=" M 0.00 0.00 L 252.00 0.00 L 252.00 213.00 L 0.00 213.00 L 0.00 0.00 Z" />
<path fill="#95cc1f" d=" M 99.29 7.31 C 114.22 3.65 130.88 11.56 137.44 25.45 C 144.75 39.77 140.17 58.82 126.98 68.08 C 117.00 75.50 102.88 76.63 91.76 71.13 C 78.53 64.80 70.53 49.34 73.26 34.89 C 75.27 21.52 86.07 10.09 99.29 7.31 Z" />
<path fill="#95cc1f" d=" M 148.11 59.98 C 167.54 38.12 196.48 24.80 225.83 25.24 C 210.32 33.87 194.20 41.98 181.07 54.14 C 169.43 64.71 160.90 78.79 157.49 94.17 C 155.10 104.88 156.80 116.36 162.00 126.01 C 165.29 132.00 167.16 138.85 166.68 145.71 C 166.13 154.49 161.69 162.51 156.10 169.10 C 146.43 180.23 133.31 187.71 119.76 193.11 C 119.73 174.07 119.76 155.03 119.74 136.00 C 119.19 108.30 129.49 80.52 148.11 59.98 Z" />
<path fill="#95cc1f" d=" M 186.67 55.72 C 198.91 43.13 214.45 34.51 229.74 26.21 C 229.76 45.16 229.74 64.10 229.76 83.04 C 230.37 110.61 220.15 138.24 201.78 158.79 C 182.08 181.21 152.41 194.75 122.48 193.94 C 135.06 190.55 146.52 183.81 156.50 175.54 C 163.72 169.29 170.45 161.99 173.98 152.97 C 176.59 146.14 176.70 138.42 174.39 131.49 C 172.88 126.69 169.92 122.51 168.37 117.72 C 165.03 108.46 164.92 98.18 167.64 88.74 C 171.12 76.38 177.72 64.93 186.67 55.72 Z" />
<path fill="#95cc1f" d=" M 26.25 58.24 C 45.10 57.58 64.14 63.42 79.02 75.07 C 100.19 91.18 112.84 117.43 113.01 143.96 C 112.99 160.63 113.01 177.31 113.00 193.99 C 95.47 194.82 77.75 189.68 63.39 179.60 C 40.56 163.91 26.44 136.64 26.24 109.01 C 26.27 92.09 26.24 75.16 26.25 58.24 Z" />
<path fill="#ffffff" d=" M 172.86 120.45 C 180.29 99.82 195.06 81.22 215.18 71.86 C 208.72 83.72 201.35 95.19 192.19 105.16 C 186.64 111.31 179.48 115.60 172.86 120.45 Z" />
</svg>
